<svg
        width="177"
        height="24"
        viewBox="0 0 177 24"
        fill="none"
        xmlns="http://www.w3.org/2000/svg"
      >
        <g clip-path="url(#clip0_407_689)">
          <path
            d="M10.3487 23.8432H9.79311C9.53472 23.8432 8.92103 23.8112 8.92103 23.8112C8.75631 23.8112 7.81317 23.7088 7.72596 23.6992C7.63875 23.6896 7.54186 23.6736 7.43527 23.6512C7.16072 23.6096 6.98954 23.5552 6.62779 23.4912C6.36411 23.4503 6.10467 23.3861 5.8526 23.2992C4.87138 22.9947 3.9368 22.5587 3.07487 22.0032C2.26414 21.4673 1.58081 20.763 1.07231 19.9392C0.705416 19.3785 0.432718 18.7625 0.264829 18.1152C0.22284 17.9872 0.135633 17.5968 0.100104 17.4112C0.064575 17.2256 0.0290455 16.9376 0.00643606 16.6912C-0.0269933 16.495 0.0194666 16.2936 0.135634 16.1312C0.185678 16.049 0.253758 15.979 0.33483 15.9263C0.415903 15.8737 0.507889 15.8399 0.603972 15.8272C0.807457 15.7952 3.68855 15.7792 3.88235 15.7792C4.05943 15.7758 4.23534 15.8085 4.39914 15.8752C4.50886 15.9203 4.60508 15.9925 4.6786 16.085C4.75211 16.1774 4.80046 16.287 4.81903 16.4032C4.93393 16.9112 5.11868 17.4011 5.36811 17.8592C5.49497 18.0705 5.63521 18.2736 5.78801 18.4672C5.89487 18.5955 6.01384 18.7134 6.1433 18.8192C6.26615 18.9233 6.39562 19.0195 6.53089 19.1072C7.07286 19.4357 7.66049 19.6836 8.27505 19.8432C8.57373 19.9033 8.87571 19.9461 9.17943 19.9712C9.17943 19.9712 9.75113 20.0352 10.0515 20.0352C10.3558 20.0366 10.6599 20.0206 10.9624 19.9872C11.0689 19.9712 11.6406 19.8848 11.7924 19.84C12.4077 19.6785 12.9887 19.4086 13.5075 19.0432C13.9918 18.6337 14.3126 18.0663 14.4119 17.4432C14.4497 17.2751 14.4551 17.1014 14.4281 16.9312C14.4134 16.7771 14.3753 16.6261 14.315 16.4832C14.1134 15.9248 13.7262 15.4509 13.2168 15.1392C13.1522 15.0976 13.0327 15.0336 12.8615 14.9472C12.5217 14.7487 12.1582 14.5929 11.7795 14.4832C11.3822 14.368 10.9882 14.2432 10.6006 14.1152C10.4488 14.0736 10.3034 14.0352 10.1646 14.0032C10.0257 13.9712 9.8674 13.936 9.69622 13.8912C9.35062 13.7856 9.00178 13.696 8.64649 13.6192C8.3021 13.5491 7.96233 13.4582 7.62906 13.3472C7.52248 13.3056 7.23178 13.264 7.14457 13.2192C6.97339 13.1776 6.82158 13.136 6.67624 13.0912C6.53089 13.0464 6.37908 13.008 6.2079 12.9632C5.71264 12.7947 5.23892 12.6187 4.78673 12.4352C4.34897 12.2583 3.92751 12.0442 3.52706 11.7952C3.03221 11.4757 2.57691 11.0998 2.17049 10.6752C1.75881 10.2478 1.43031 9.74879 1.20151 9.20323C1.04556 8.79862 0.926655 8.38094 0.846217 7.95523C0.79728 7.68005 0.764923 7.40222 0.749318 7.12323C0.723927 6.74775 0.732575 6.37078 0.775158 5.99683C0.807457 5.79523 0.891435 5.44323 0.946344 5.21923C1.00492 4.99562 1.07939 4.77641 1.16921 4.56323C1.46451 3.8595 1.8858 3.21446 2.41273 2.65923C2.94228 2.11908 3.53296 1.64126 4.17304 1.23523C4.62765 0.958445 5.11326 0.735067 5.62005 0.569626C6.11746 0.422426 6.58903 0.339228 7.14457 0.211228C7.36098 0.169628 7.66136 0.13443 8.07802 0.0832298C8.34611 0.0544298 8.68202 0.0448259 8.98563 0.0192259C13.1609 -0.0447741 16.0355 1.18189 17.6095 3.69923C17.8135 4.03278 17.9813 4.38675 18.1102 4.75523C18.246 5.14315 18.3592 5.53846 18.4493 5.93923C18.5076 6.13773 18.5359 6.3437 18.5333 6.55043C18.5292 6.72507 18.4655 6.89318 18.3524 7.02723C18.2987 7.09688 18.2305 7.15432 18.1526 7.19572C18.0746 7.23712 17.9885 7.2615 17.9002 7.26723C17.6709 7.26723 14.8318 7.31523 14.638 7.31523C14.4741 7.32043 14.3104 7.2988 14.1535 7.25123C14.037 7.21111 13.932 7.14355 13.8476 7.05437C13.7632 6.96519 13.7019 6.85704 13.669 6.73923C13.601 6.4984 13.5147 6.26306 13.4106 6.03523C13.3125 5.80125 13.1936 5.57637 13.0553 5.36323C12.9162 5.13789 12.7405 4.93681 12.5353 4.76803C12.2855 4.55957 12.0029 4.39309 11.6988 4.27523C11.3887 4.16036 11.0702 4.06942 10.7459 4.00323C10.3621 3.9289 9.97363 3.88078 9.58317 3.85923C9.18996 3.83936 8.79577 3.85006 8.40425 3.89123C8.04906 3.92669 7.70092 4.01292 7.37067 4.14723C6.9406 4.31762 6.55035 4.57355 6.22405 4.89923C5.91934 5.24534 5.72096 5.67062 5.65235 6.12483C5.61267 6.31098 5.60394 6.50229 5.62651 6.69123C5.63948 6.83883 5.67206 6.98408 5.72341 7.12323C5.84725 7.51217 6.10429 7.84605 6.45014 8.06723C6.80767 8.27072 7.18016 8.44721 7.56447 8.59523C7.80078 8.6919 8.04361 8.77209 8.2912 8.83523C8.52698 8.90883 8.79184 8.96643 9.05023 9.04323C9.63162 9.23523 12.8906 10.0448 12.9907 10.0672C13.0909 10.0896 14.1987 10.3872 14.6542 10.5472C15.12 10.694 15.5667 10.8949 15.9849 11.1456C16.4835 11.4523 16.9565 11.7979 17.3996 12.1792C17.8593 12.5895 18.2564 13.0638 18.5785 13.5872C18.6955 13.7663 18.795 13.9559 18.8757 14.1536C18.9524 14.3312 19.0192 14.5128 19.0759 14.6976C19.1297 14.8772 19.1718 15.0599 19.2019 15.2448C19.2541 15.6289 19.2832 16.0157 19.2891 16.4032C19.2891 16.5184 19.2633 17.3472 19.231 17.5616C19.1987 17.776 19.0953 18.4 19.0307 18.6112C18.9117 18.9711 18.7715 19.3237 18.6108 19.6672C18.4572 19.9927 18.2733 20.3034 18.0617 20.5952C17.9745 20.704 17.7387 20.9696 17.6321 21.1104C17.5035 21.2507 17.3665 21.3832 17.2219 21.5072C17.0898 21.6285 16.9495 21.7407 16.8021 21.8432C16.6955 21.9296 16.5824 22.016 16.4629 22.0992C16.3434 22.1824 16.2207 22.272 16.0915 22.3552C15.7319 22.5886 15.3474 22.7818 14.9448 22.9312C14.5476 23.0816 14.1309 23.232 13.7013 23.3792C13.3949 23.4767 13.0819 23.5526 12.7646 23.6064C12.4417 23.6672 11.5017 23.7888 11.3596 23.8016L10.7136 23.8464"
            fill="#EFF3F5"
          />
          <path
            d="M22.6162 0.483261H25.1032C25.4484 0.480123 25.7935 0.496147 26.1368 0.531259C26.2805 0.552953 26.4138 0.618583 26.5181 0.718984C26.6223 0.819384 26.6923 0.949539 26.7182 1.09126C26.7405 1.20188 26.7513 1.31447 26.7505 1.42726V8.51526C26.7371 8.69139 26.7705 8.86791 26.8474 9.02727C26.8746 9.07803 26.9133 9.12184 26.9605 9.15526C27 9.19263 27.0513 9.21525 27.1058 9.21926C27.1833 9.24011 27.2651 9.23918 27.3422 9.21657C27.4192 9.19397 27.4883 9.15058 27.5418 9.09126C27.6807 8.96326 27.7841 8.86726 27.8487 8.80326L28.3655 8.29126C28.5367 8.12166 29.0115 7.63206 29.1084 7.52326C29.2053 7.41446 29.2795 7.34726 29.3667 7.25126C29.454 7.15526 29.6897 6.88646 29.722 6.85126C29.7543 6.81606 30.5069 6.06406 30.6264 5.92326C30.7459 5.78246 31.7181 4.73606 32.0153 4.45126C32.3124 4.16646 33.0489 3.36326 33.0489 3.36326L33.2427 3.17126C33.3073 3.10726 34.3505 1.97766 34.4377 1.89126C34.5302 1.80102 34.6165 1.70481 34.6961 1.60326C34.7381 1.56166 35.2452 1.01126 35.439 0.851259C35.657 0.686809 35.9118 0.577022 36.1819 0.531259C36.3778 0.487622 36.579 0.471466 36.7794 0.483261C37.0055 0.483261 37.2155 0.499257 37.4093 0.499257H39.8963C40.1321 0.499257 40.3873 0.499261 40.6553 0.483261C40.8755 0.461919 41.0967 0.512492 41.2852 0.627265C41.3458 0.690953 41.3844 0.772088 41.3955 0.858945C41.4065 0.945801 41.3894 1.03388 41.3466 1.11046C41.2083 1.28963 41.0584 1.4596 40.8976 1.61926C40.8039 1.72806 39.8414 2.70406 39.6702 2.85126C38.9187 3.60006 38.1651 4.35739 37.4093 5.12326C36.6535 5.88913 35.8998 6.64646 35.1483 7.39526C34.8044 7.77921 34.4377 8.14252 34.0501 8.48326C33.8983 8.63366 33.7595 8.77766 33.6303 8.91526C33.492 9.07368 33.4023 9.26799 33.3719 9.47526C33.351 9.55997 33.3488 9.64816 33.3655 9.73377C33.3823 9.81938 33.4175 9.90039 33.4688 9.97126C33.5753 10.1313 33.6626 10.2657 33.7272 10.3713C33.9436 10.6913 34.1632 11.0113 34.3731 11.3313C34.5831 11.6513 34.8189 11.9553 35.0353 12.2753C35.9397 13.5553 36.844 14.8193 37.7484 16.0673C38.6528 17.3153 39.5572 18.5793 40.4615 19.8593L41.6243 21.4913C41.7115 21.6193 41.8084 21.7377 41.8989 21.8593C41.9893 21.9809 42.322 22.4641 42.4221 22.6561C42.4659 22.7344 42.4779 22.8263 42.4557 22.9131C42.4335 22.9999 42.3788 23.0751 42.3026 23.1233C42.1095 23.2423 41.8836 23.2983 41.6566 23.2833C41.3756 23.2833 37.855 23.2833 37.6192 23.2993C37.4027 23.3136 37.1852 23.2974 36.9732 23.2513C36.7556 23.1797 36.5607 23.0528 36.408 22.8833C36.2627 22.7156 36.1279 22.5392 36.0043 22.3553C35.8751 22.1857 35.7523 22.0097 35.6328 21.8273L35.2614 21.2673C34.68 20.3713 34.0878 19.4966 33.4849 18.6433C32.882 17.7899 32.2791 16.9153 31.6761 16.0193L30.9817 14.9633C30.7556 14.6241 30.5231 14.2817 30.2873 13.9393C30.2001 13.8337 30.0935 13.7121 29.9643 13.5713C29.8993 13.5032 29.8169 13.4539 29.726 13.4286C29.635 13.4032 29.5387 13.4028 29.4475 13.4273C29.1981 13.5135 28.9755 13.6623 28.8015 13.8593C28.5851 14.0833 28.4042 14.2721 28.2524 14.4193C28.1006 14.5665 28.036 14.6401 27.9294 14.7553C27.8228 14.8705 27.713 14.9857 27.6064 15.0913C27.4999 15.1969 27.3157 15.3857 27.1865 15.5233C27.0533 15.6636 26.9442 15.8247 26.8636 16.0001C26.7991 16.1368 26.7619 16.2846 26.7537 16.4353C26.7537 16.5857 26.7376 16.7553 26.7376 16.9153V17.3313C26.7376 17.6289 26.7376 17.9713 26.7376 18.0673V21.8433C26.7376 22.0801 26.7376 22.3041 26.7376 22.5153C26.7369 22.7007 26.6745 22.8806 26.5599 23.0273C26.4987 23.0952 26.4242 23.15 26.3409 23.1886C26.2576 23.2271 26.1673 23.2484 26.0755 23.2513C25.8501 23.2736 25.6237 23.2842 25.3972 23.2833H23.2008C22.965 23.2833 22.7389 23.2833 22.5225 23.2673C22.3257 23.2652 22.1342 23.2038 21.9734 23.0913C21.89 23.0182 21.8258 22.9261 21.7864 22.823C21.747 22.7198 21.7336 22.6087 21.7474 22.4993V2.17926C21.7474 1.94566 21.7474 1.69926 21.7474 1.44326C21.7274 1.23413 21.7665 1.02362 21.8604 0.835263C21.9979 0.681465 22.1774 0.570337 22.3772 0.515263C22.4551 0.49422 22.5355 0.483459 22.6162 0.483261V0.483261Z"
            fill="#EFF3F5"
          />
          <path
            d="M45.5062 0.515227H48.0029C48.2387 0.515227 48.4648 0.515227 48.6812 0.515227C48.7751 0.515838 48.8676 0.537788 48.9516 0.579397C49.0356 0.621006 49.1089 0.681163 49.1657 0.755227C49.2786 0.926766 49.3402 1.12646 49.3433 1.33122C49.3433 1.56802 49.3433 1.82402 49.3433 2.09922V21.2352C49.3433 21.5136 49.3433 21.824 49.3595 22.1632C49.3855 22.4277 49.3351 22.6941 49.2141 22.9312C49.1444 23.0225 49.0571 23.0991 48.9573 23.1568C48.8576 23.2145 48.7472 23.252 48.6328 23.2672C48.4519 23.2896 47.8027 23.2832 47.6315 23.2832H45.742C45.5208 23.2846 45.2998 23.2739 45.0798 23.2512C44.8968 23.2408 44.7217 23.1736 44.5792 23.0592C44.4581 22.9277 44.3893 22.7572 44.3854 22.5792C44.3627 22.3559 44.352 22.1316 44.3531 21.9072V2.77122C44.3531 2.47362 44.3531 2.13123 44.3531 1.71523C44.3195 1.41944 44.3698 1.12022 44.4984 0.851223C44.5576 0.753979 44.6396 0.672347 44.7374 0.613284C44.8353 0.55422 44.9461 0.519479 45.0605 0.512024L45.5062 0.515227Z"
            fill="#EFF3F5"
          />
          <path
            d="M54.276 0.476824H56.9278C57.1668 0.476824 57.3961 0.476824 57.6222 0.476824C57.7189 0.47416 57.8149 0.494569 57.902 0.536336C57.9892 0.578103 58.0649 0.640005 58.1228 0.716824C58.2405 0.891358 58.2973 1.0993 58.2843 1.30882V16.5888C58.2843 16.7584 58.2843 17.4016 58.2843 17.5488V17.8688C58.2852 18.0153 58.2939 18.1616 58.3102 18.3072C58.3266 18.4335 58.3592 18.5571 58.4071 18.6752C58.503 18.8219 58.6387 18.9388 58.7987 19.0124C58.9587 19.0859 59.1365 19.1133 59.3114 19.0912H66.9018C67.0762 19.0912 67.2894 19.0912 67.5478 19.0752C67.7952 19.0624 68.0432 19.0624 68.2906 19.0752C68.5133 19.0824 68.7349 19.1091 68.9528 19.1552C69.1062 19.1695 69.2493 19.2376 69.3565 19.3472C69.4677 19.4823 69.5252 19.6531 69.518 19.8272C69.518 20.0192 69.518 22.2368 69.5342 22.3872C69.5493 22.5172 69.5327 22.6489 69.4857 22.7712C69.4201 22.9206 69.3066 23.0444 69.1627 23.1232C69.02 23.2179 68.8496 23.2629 68.6782 23.2512H54.6926C54.4281 23.2535 54.1636 23.2375 53.9013 23.2032C53.8001 23.1932 53.7026 23.1606 53.6159 23.108C53.5292 23.0553 53.4556 22.984 53.4007 22.8992C53.31 22.7498 53.2651 22.5775 53.2715 22.4032V1.85282C53.2715 1.66082 53.2715 1.46882 53.2876 1.27682C53.2898 1.12084 53.3285 0.967471 53.4007 0.828816C53.4604 0.743524 53.537 0.671174 53.6258 0.61616C53.7147 0.561146 53.8139 0.524618 53.9175 0.508816C54.0362 0.491126 54.1559 0.480449 54.276 0.476824Z"
            fill="#EFF3F5"
          />
          <path
            d="M72.6799 0.483185H75.4253C75.6611 0.483185 75.8937 0.483181 76.1197 0.499181C76.2162 0.498305 76.3116 0.519515 76.3984 0.561144C76.4853 0.602773 76.5612 0.663695 76.6204 0.739181C76.7348 0.915195 76.7912 1.12204 76.7819 1.33118V14.7232C76.7819 14.7232 76.7657 16.9632 76.7625 17.136C76.7593 17.3088 76.7625 17.456 76.7625 17.6C76.7625 17.6 76.7819 18.176 76.798 18.3008C76.8153 18.4345 76.8489 18.5656 76.8982 18.6912C76.9932 18.8387 77.1289 18.9562 77.2891 19.0299C77.4493 19.1036 77.6275 19.1304 77.8025 19.1072H85.3929C85.5641 19.1072 85.7805 19.1072 86.0389 19.0912C86.2973 19.0752 86.5427 19.0912 86.7817 19.0912C86.9987 19.1026 87.2146 19.1294 87.4277 19.1712C87.5799 19.1895 87.7218 19.257 87.8315 19.3632C87.9414 19.499 87.9986 19.6692 87.993 19.8432V20.4512C87.993 20.4512 87.993 22.256 88.0091 22.4032C88.0215 22.5332 88.005 22.6642 87.9607 22.7872C87.8951 22.9366 87.7815 23.0603 87.6377 23.1392C87.4953 23.2345 87.3246 23.2796 87.1532 23.2672H73.1967C72.9321 23.2696 72.6676 23.2535 72.4053 23.2192C72.3036 23.2113 72.2052 23.1796 72.1181 23.1268C72.0311 23.074 71.958 23.0014 71.9047 22.9152C71.812 22.7666 71.767 22.5937 71.7755 22.4192V1.85918C71.7755 1.66718 71.7755 1.47518 71.7755 1.28318C71.7765 1.12704 71.8152 0.973411 71.8885 0.835187C71.9484 0.750024 72.025 0.677764 72.1139 0.622765C72.2027 0.567766 72.3018 0.531168 72.4053 0.515187C72.4958 0.496766 72.5876 0.486058 72.6799 0.483185V0.483185Z"
            fill="#EFF3F5"
          />
          <path
            d="M132.492 10.2752C132.524 10.6848 132.544 11.3504 132.55 11.4592C132.557 11.568 132.55 11.9936 132.55 12.0992C132.55 12.2048 132.515 12.8416 132.502 13.1552C132.489 13.4688 132.424 13.7952 132.418 13.9136C132.398 14.1568 132.356 14.3808 132.327 14.6208C132.304 14.856 132.263 15.0892 132.204 15.3184C132.095 15.68 132.046 15.936 131.943 16.2624C131.839 16.5888 131.726 16.9024 131.597 17.2224C131.251 18.0866 130.795 18.9038 130.241 19.6544C129.705 20.3769 129.05 21.0044 128.303 21.5104C127.88 21.8064 127.432 22.0635 126.962 22.2784C126.475 22.5027 125.973 22.6951 125.46 22.8544C125.244 22.9184 125.021 22.9408 124.798 22.9984C124.575 23.056 124.34 23.0784 124.104 23.1424C123.997 23.1648 123.829 23.184 123.732 23.1936L123.228 23.2352C123.004 23.2584 122.779 23.2701 122.553 23.2704C122.36 23.2704 121.423 23.2704 121.229 23.2704H113.7C113.393 23.2736 113.085 23.2576 112.78 23.2224C112.66 23.2086 112.547 23.162 112.453 23.088C112.359 23.0139 112.287 22.9153 112.247 22.8032C112.173 22.5488 112.145 22.2832 112.166 22.0192C112.166 21.6672 112.182 21.3792 112.182 21.1392V2.35523C112.182 2.09923 112.182 1.82723 112.166 1.53923C112.145 1.30074 112.196 1.06152 112.311 0.851229C112.436 0.697874 112.605 0.586162 112.796 0.531229C112.896 0.507984 112.999 0.497232 113.103 0.499227H122.518H122.996L123.694 0.556835C123.839 0.576035 124.191 0.624026 124.411 0.678426C124.711 0.742426 124.873 0.777629 125.231 0.860829C125.515 0.928029 125.774 1.01443 126.039 1.10083C126.518 1.26389 126.983 1.4673 127.427 1.70883C127.967 2.05123 128.241 2.22723 128.694 2.54723L129.107 2.89283C129.33 3.07711 129.54 3.27596 129.737 3.48804C129.911 3.67684 130.231 4.04163 130.363 4.21443C130.496 4.38723 130.615 4.53443 130.722 4.71683C131.013 5.16859 131.268 5.64138 131.487 6.13123C131.701 6.63363 131.875 7.17123 132.046 7.73123C132.199 8.3105 132.318 8.89818 132.401 9.49123C132.408 9.59043 132.466 9.96803 132.492 10.2752ZM127.595 12.2432C127.595 11.728 127.553 11.0208 127.553 11.0208C127.553 10.8192 127.502 10.4672 127.469 10.256C127.437 10.0448 127.288 9.36963 127.25 9.23523C127.174 8.90828 127.073 8.58739 126.949 8.27523C126.83 7.97385 126.687 7.68182 126.523 7.40163C126.216 6.90942 125.841 6.46238 125.409 6.07363C124.952 5.67849 124.434 5.35964 123.874 5.12963C123.681 5.06563 123.484 4.98563 123.29 4.93123L122.715 4.78403C122.41 4.72489 122.101 4.68852 121.791 4.67523C121.625 4.65801 121.458 4.64946 121.291 4.64963H118.445C118.273 4.64841 118.102 4.6591 117.931 4.68163C117.821 4.71215 117.714 4.74956 117.608 4.79363C117.501 4.8324 117.41 4.90563 117.35 5.00163C117.256 5.13188 117.211 5.29004 117.221 5.44963V6.08963C117.221 6.36803 117.221 6.65603 117.205 6.95363C117.189 7.25123 117.189 7.55203 117.189 7.84963V16.7776C117.189 16.9056 117.189 17.2128 117.189 17.3632V17.9712C117.192 18.2193 117.237 18.4649 117.324 18.6976C117.396 18.8281 117.504 18.9353 117.636 19.0063C117.768 19.0772 117.917 19.109 118.067 19.0976C118.432 19.0976 118.81 19.1136 119.198 19.1136C120.037 19.1136 120.887 19.1136 121.749 19.0976C122.498 19.1082 123.242 18.9835 123.946 18.7296C124.67 18.4602 125.319 18.021 125.835 17.4496C126.327 16.9095 126.718 16.2877 126.991 15.6128C127.105 15.3555 127.2 15.0903 127.276 14.8192C127.428 14.3613 127.52 13.886 127.55 13.4048C127.56 13.2032 127.595 12.6144 127.595 12.2432Z"
            fill="#EFF3F5"
          />
          <path
            d="M155.091 22.0832C155.152 22.2121 155.2 22.3459 155.237 22.4832C155.264 22.6152 155.264 22.7513 155.237 22.8832C155.226 22.946 155.2 23.0053 155.16 23.0555C155.121 23.1058 155.069 23.1456 155.011 23.1712C154.74 23.2824 154.446 23.3263 154.155 23.2992C153.767 23.2992 151.329 23.28 151.183 23.2832C151.047 23.2916 150.91 23.2753 150.779 23.2352C150.671 23.2103 150.569 23.1632 150.48 23.0971C150.391 23.031 150.317 22.9473 150.263 22.8512C150.156 22.6816 149.898 21.9232 149.81 21.7312C149.704 21.392 149.591 21.0496 149.471 20.7072C149.352 20.3648 149.229 20.0352 149.1 19.7152L148.922 19.1872C148.873 19.0394 148.814 18.8951 148.745 18.7552C148.675 18.6223 148.576 18.5073 148.454 18.4192C148.299 18.3134 148.123 18.2425 147.937 18.2112C147.827 18.2112 147.43 18.1792 147.323 18.1792H142.22C141.855 18.1792 141.461 18.1792 141.041 18.1632C140.701 18.138 140.361 18.2221 140.072 18.4032C139.901 18.5315 139.777 18.7111 139.717 18.9152C139.652 19.1296 139.174 20.2976 139.071 20.6912C138.968 21.0848 138.819 21.4752 138.667 21.8592C138.581 22.0726 138.5 22.2966 138.425 22.5312C138.363 22.7473 138.233 22.9379 138.054 23.0752C137.916 23.1736 137.754 23.2342 137.585 23.2512C137.361 23.2847 137.134 23.3008 136.907 23.2992C136.658 23.2992 134.853 23.28 134.452 23.2832C134.159 23.3113 133.864 23.2616 133.596 23.1392C133.545 23.1098 133.501 23.068 133.47 23.0177C133.439 22.9674 133.421 22.9101 133.419 22.8512C133.409 22.717 133.42 22.5822 133.451 22.4512C133.483 22.3136 133.522 22.1792 133.564 22.0512C133.6 21.9418 133.643 21.8349 133.693 21.7312C133.91 21.2416 134.107 20.7392 134.291 20.2272C134.475 19.7152 134.662 19.216 134.856 18.7232C134.941 18.5607 135.006 18.3889 135.05 18.2112C135.095 18.0339 135.16 17.8622 135.243 17.6992C135.415 17.2512 135.589 16.7936 135.76 16.3232C135.931 15.8528 136.106 15.3952 136.277 14.9472C136.448 14.4992 136.6 14.0992 136.762 13.6832C136.923 13.2672 137.085 12.848 137.246 12.4192C137.739 11.248 138.197 10.064 138.619 8.86723C139.041 7.67043 139.498 6.48643 139.991 5.31523C140.033 5.20963 140.143 4.84803 140.185 4.73923C140.356 4.29123 140.531 3.83363 140.702 3.36323C140.873 2.89283 141.451 1.51363 141.526 1.26723C141.594 1.03278 141.735 0.825642 141.929 0.675232C142.061 0.602751 142.202 0.548895 142.349 0.515232C142.434 0.493358 142.521 0.482597 142.608 0.48323H145.45C145.686 0.48323 145.928 0.483234 146.177 0.467234C146.407 0.455319 146.635 0.517385 146.827 0.644216C147.02 0.771048 147.165 0.955871 147.243 1.17123C147.317 1.41763 147.808 2.64323 147.937 2.99523C148.066 3.34723 148.444 4.32323 148.486 4.45123L148.615 4.83523C148.787 5.26403 148.938 5.68323 149.1 6.09923C149.261 6.51523 149.423 6.93763 149.584 7.36323C150.015 8.4299 150.419 9.50723 150.796 10.5952C151.173 11.6832 152.459 14.992 152.588 15.3312L152.976 16.3552C153.082 16.6272 153.266 17.1776 153.331 17.3472C153.613 18.032 153.872 18.7147 154.106 19.3952C154.342 20.08 154.61 20.752 154.881 21.4112C154.894 21.5232 155.036 21.9552 155.091 22.0832ZM142.139 14.4832C142.388 14.5056 145.763 14.5152 145.999 14.5152C146.206 14.5196 146.412 14.4981 146.613 14.4512C146.733 14.4224 146.838 14.3514 146.91 14.2514C146.981 14.1513 147.013 14.029 147 13.9072C146.978 13.6529 146.912 13.404 146.807 13.1712C146.768 13.0688 146.138 11.232 145.902 10.4832C145.666 9.73443 145.027 8.02243 144.966 7.84323C144.86 7.5606 144.731 7.28758 144.578 7.02723C144.54 6.97756 144.492 6.93723 144.436 6.90946C144.379 6.88169 144.318 6.86723 144.255 6.86723C144.171 6.86723 144.039 7.01763 143.997 7.05923C143.836 7.29637 143.711 7.555 143.625 7.82723C143.525 8.11843 142.86 9.89763 142.656 10.5152C142.453 11.1328 142.23 11.7536 142.01 12.3712C141.923 12.5856 141.655 13.4176 141.59 13.6512C141.526 13.8402 141.537 14.0465 141.623 14.2272C141.686 14.3072 141.767 14.3719 141.859 14.4162C141.952 14.4606 142.053 14.4835 142.156 14.4832"
            fill="#EFF3F5"
          />
          <path
            d="M176.387 22.7297C176.387 22.8181 176.363 22.9049 176.319 22.9817C176.275 23.0586 176.212 23.1228 176.135 23.1681C175.961 23.2373 175.774 23.2711 175.586 23.2673C175.586 23.2673 172.421 23.2673 172.246 23.2193C172.055 23.1746 171.884 23.0716 171.755 22.9249C171.653 22.7883 171.582 22.6309 171.548 22.4641C171.548 22.3073 171.548 21.1297 171.548 20.8097V19.5297C171.548 19.2417 171.568 17.9937 171.548 17.7473C171.538 17.4554 171.495 17.1656 171.419 16.8833C171.35 16.6337 171.252 16.3931 171.125 16.1665C171.022 15.9675 170.907 15.7741 170.783 15.5873C170.547 15.1977 170.196 14.8885 169.778 14.7009C169.62 14.6401 169.288 14.5121 169.133 14.4641C168.681 14.3536 168.215 14.3116 167.75 14.3393H163.648C163.477 14.3471 163.309 14.3794 163.147 14.4353C163.023 14.466 162.91 14.5329 162.824 14.6273C162.632 14.9205 162.551 15.2724 162.598 15.6193C162.621 16.0673 162.598 21.8177 162.598 21.9873V22.4513C162.6 22.5769 162.579 22.7017 162.534 22.8193C162.506 22.9099 162.456 22.9924 162.389 23.0593C162.321 23.1263 162.238 23.1758 162.146 23.2033C162.023 23.2499 161.891 23.2717 161.759 23.2673C161.607 23.2673 159.11 23.2673 158.722 23.2833C158.416 23.3165 158.108 23.243 157.85 23.0753C157.758 23.0081 157.686 22.9179 157.64 22.8139C157.595 22.7098 157.578 22.5958 157.592 22.4833V2.17925C157.592 1.94565 157.592 1.69926 157.592 1.44326C157.571 1.2302 157.622 1.0162 157.737 0.835257C157.862 0.681902 158.031 0.57019 158.222 0.515257C158.317 0.492545 158.415 0.481792 158.512 0.483255H169.494C169.84 0.483255 170.166 0.483251 170.463 0.499251C170.778 0.504039 171.091 0.536168 171.4 0.595257C171.571 0.633657 171.865 0.694451 172.046 0.739251L172.498 0.867259C172.652 0.912003 172.803 0.965424 172.95 1.02726C173.478 1.25735 173.976 1.54729 174.436 1.89125C174.877 2.22066 175.259 2.62086 175.567 3.07526C175.645 3.1765 175.715 3.28348 175.776 3.39526C175.848 3.51366 175.899 3.60645 175.986 3.73125C176.294 4.29645 176.512 4.90518 176.632 5.53606C176.674 5.76646 176.7 6.02566 176.723 6.22726C176.75 6.53048 176.761 6.8349 176.755 7.13925C176.733 7.38565 176.678 8.03845 176.632 8.19205C176.587 8.34565 176.571 8.48006 176.529 8.62726C176.422 8.94726 176.338 9.26725 176.229 9.54245C176.113 9.82945 175.965 10.1022 175.786 10.3553C175.744 10.4193 175.692 10.5057 175.634 10.5857C175.576 10.6657 175.447 10.8257 175.369 10.9057C175.257 11.0403 175.135 11.1665 175.005 11.2833C174.875 11.3921 174.762 11.5073 174.633 11.6033C174.504 11.6993 174.349 11.8081 174.197 11.9233C174.11 11.9873 174.026 12.0577 173.939 12.1313C173.853 12.2053 173.787 12.2985 173.745 12.4033C173.722 12.4568 173.715 12.5161 173.727 12.5732C173.739 12.6303 173.767 12.6827 173.809 12.7233C173.878 12.7946 173.954 12.8589 174.036 12.9153L174.682 13.4273C174.897 13.5992 175.082 13.8045 175.231 14.0353C175.48 14.3829 175.686 14.7589 175.844 15.1553C175.912 15.3313 175.993 15.5073 176.064 15.7025C176.154 15.9462 176.224 16.1966 176.274 16.4513C176.316 16.6567 176.34 16.8656 176.345 17.0753C176.345 17.3313 176.397 19.1425 176.387 19.2257C176.38 19.3322 176.38 19.4391 176.387 19.5457V22.7457V22.7297ZM171.678 8.13125C171.715 7.84471 171.72 7.55498 171.694 7.26726C171.682 7.00817 171.644 6.75089 171.581 6.49925C171.548 6.40325 171.497 6.20166 171.452 6.08326C171.326 5.75994 171.136 5.46543 170.891 5.2178C170.647 4.97017 170.354 4.77465 170.03 4.64326C169.634 4.46626 169.206 4.3684 168.771 4.35526C168.296 4.33606 167.802 4.32326 167.285 4.32326H163.538C163.451 4.31863 163.363 4.32947 163.28 4.35526C163.177 4.37177 163.078 4.40857 162.989 4.46353C162.9 4.51848 162.823 4.59048 162.763 4.67526C162.653 4.87019 162.603 5.09249 162.618 5.31526C162.618 5.58406 162.618 5.84325 162.618 6.09925V9.84326C162.606 10.0576 162.663 10.2702 162.779 10.4513C162.88 10.5882 163.031 10.6803 163.199 10.7073C163.412 10.7548 163.628 10.7869 163.845 10.8033C164.092 10.8264 164.34 10.8318 164.588 10.8193C164.846 10.8193 165.072 10.8033 165.266 10.8033H167.188C167.34 10.8033 168.574 10.7809 168.829 10.7681C169.062 10.7635 169.294 10.7213 169.514 10.6433C169.854 10.5487 170.18 10.4088 170.483 10.2273C170.765 10.0559 171.007 9.82677 171.193 9.55526C171.335 9.36071 171.444 9.14455 171.516 8.91526C171.59 8.65834 171.644 8.39625 171.678 8.13125V8.13125Z"
            fill="#EFF3F5"
          />
          <path
            fill-rule="evenodd"
            clip-rule="evenodd"
            d="M103.073 17.5488C101.939 18.4741 100.553 19.0454 99.0912 19.1904C97.6291 19.3354 96.1565 19.0476 94.8596 18.3633C93.5626 17.6791 92.4996 16.6291 91.805 15.3463C91.1104 14.0635 90.8153 12.6054 90.9572 11.1564C91.0991 9.70744 91.6715 8.3327 92.602 7.20605C93.5325 6.0794 94.7794 5.25146 96.1849 4.82693C97.5904 4.4024 99.0914 4.40035 100.498 4.82104C101.905 5.24173 103.154 6.06627 104.088 7.19037C105.339 8.69734 105.936 10.6351 105.745 12.5776C105.555 14.5201 104.594 16.3082 103.073 17.5488V17.5488Z"
            fill="#D9213C"
          />
          <path
            opacity="0.25"
            fill-rule="evenodd"
            clip-rule="evenodd"
            d="M92.7831 16.7392C92.1313 16.0014 91.6349 15.142 91.3231 14.2115C91.0112 13.2809 90.8902 12.2981 90.967 11.3206C91.0439 10.3431 91.3171 9.39062 91.7706 8.51917C92.2241 7.64772 92.8489 6.87484 93.6081 6.2459C94.3673 5.61696 95.2457 5.14465 96.1916 4.8567C97.1376 4.56875 98.1322 4.47096 99.1168 4.56908C100.102 4.6672 101.056 4.95925 101.926 5.42808C102.795 5.89691 103.561 6.53306 104.178 7.29919"
            fill="#EFF3F5"
          />
        </g>
        <defs>
          <clipPath id="clip0_407_689">
            <rect width="176.751" height="23.8432" fill="white" />
          </clipPath>
        </defs>
      </svg>