<svg width="16" height="16" viewBox="0 0 16 16" fill="none" xmlns="http://www.w3.org/2000/svg">
<path d="M8 1.60721C5.7904 1.60721 4 3.39041 4 5.59921C4 9.41841 8 14.3992 8 14.3992C8 14.3992 12 9.41761 12 5.59921C12 3.39121 10.2096 1.60721 8 1.60721ZM8 7.80801C7.42713 7.80801 6.87773 7.58044 6.47265 7.17536C6.06757 6.77028 5.84 6.22088 5.84 5.64801C5.84 5.07514 6.06757 4.52574 6.47265 4.12066C6.87773 3.71558 7.42713 3.48801 8 3.48801C8.57287 3.48801 9.12227 3.71558 9.52735 4.12066C9.93243 4.52574 10.16 5.07514 10.16 5.64801C10.16 6.22088 9.93243 6.77028 9.52735 7.17536C9.12227 7.58044 8.57287 7.80801 8 7.80801Z" fill="#B0B3B5"/>
</svg>
